<svg width="16px" height="16px" viewBox="0 0 16 16" version="1.1" xmlns="http://www.w3.org/2000/svg" xmlns:xlink="http://www.w3.org/1999/xlink">
    <g id="Touchbar" stroke="none" stroke-width="1" fill="none" fill-rule="evenodd">
        <polygon id="Shape" fill="#000000" fill-rule="nonzero" points="10.15 10.5433334 9.38333333 11.6433334 9.46666667 11.7600001 11.0166667 11.7600001"></polygon>
        <polygon id="Shape" fill="#000000" fill-rule="nonzero" points="13.1 4.22666675 13.8666667 4.22666675 13.8666667 2.96000009 11.35 2.96000009 11.35 4.22666675"></polygon>
        <path d="M13.0833333,7.36000009 L12.4166667,7.36000009 L11.5166667,8.62666675 L13.0833333,8.62666675 C13.95,8.62666675 14.65,9.32666675 14.65,10.1933334 C14.65,11.0600001 13.95,11.7600001 13.0833333,11.7600001 L11.0166667,11.7600001 L11.9166667,13.0266668 L13.0833333,13.0266668 C14.65,13.0266668 15.9166667,11.7600001 15.9166667,10.1933334 C15.9166667,8.62666675 14.65,7.36000009 13.0833333,7.36000009 Z" id="Shape" fill="#000000" fill-rule="nonzero"></path>
        <polygon id="Shape" fill="#000000" fill-rule="nonzero" points="11.1166667 8.62666675 11.5166667 8.62666675 12.4166667 7.36000009 11.1166667 7.36000009"></polygon>
        <polygon id="Shape" fill="#000000" fill-rule="nonzero" points="9.46666667 11.7600001 10.3666667 13.0266668 11.9166667 13.0266668 11.0166667 11.7600001"></polygon>
        <polygon id="Shape" fill="#000000" fill-rule="nonzero" points="12.75 6.87666675 15.55 2.96000009 13.8666667 2.96000009 13.8666667 4.22666675 13.1 4.22666675 11.2 6.87666675"></polygon>
        <path d="M11.1166667,7.71000009 L11.05,7.71000009 L11.05,8.62666675 C10.7833333,8.62666675 10.5166667,8.57666675 10.2666667,8.51000009 L10.9333333,9.44333342 L11.5166667,8.62666675 L11.1166667,8.62666675 L11.1166667,7.71000009 Z" id="Shape" fill="#000000" fill-rule="nonzero"></path>
        <polygon id="Shape" fill="#000000" fill-rule="nonzero" points="5.66666667 4.22666675 4.76666667 2.96000009 3.21666667 2.96000009 4.11666667 4.22666675"></polygon>
        <path d="M10.8666667,7.36000009 C10.0833333,7.26000009 9.48333333,6.59333342 9.48333333,5.79333342 C9.48333333,4.92666675 10.1833333,4.22666675 11.05,4.22666675 L11.35,4.22666675 L11.35,2.96000009 L11.05,2.96000009 C9.48333333,2.96000009 8.21666667,4.22666675 8.21666667,5.79333342 C8.21666667,7.01000009 9,8.06000009 10.0833333,8.46000009 C10.3333333,8.54333342 10.6,8.61000009 10.8666667,8.62666675 L12.4,8.62666675 L12.4,7.36000009 L10.8666667,7.36000009 Z" id="Shape" fill="#000000" fill-rule="nonzero"></path>
        <polygon id="Shape" fill="#000000" fill-rule="nonzero" points="9.38333333 9.44333342 9.38333333 9.44333342 10.15 10.5433334 10.15 10.5433334"></polygon>
        <polygon id="Shape" fill="#000000" fill-rule="nonzero" points="12.4 7.36000009 11.4333333 7.71000009 10.8666667 7.36000009 9.38333333 9.46000009 9.38333333 9.44333342 8.6 10.5433334 7.81666667 11.6600001 2.53333333 4.22666675 4.11666667 4.22666675 3.21666667 2.96000009 0.0833333333 2.96000009 7.23333333 13.0266668 8.38333333 13.0266668 9.38333333 11.6433334 10.15 10.5433334 10.15 10.5433334"></polygon>
        <polygon id="Shape" fill="#000000" fill-rule="nonzero" points="9.1 9.02666675 5.66666667 4.22666675 4.11666667 4.22666675 8.31666667 10.1100001"></polygon>
    </g>
</svg>